<svg xmlns="http://www.w3.org/2000/svg" viewBox="0 0 1920 1080" preserveAspectRatio="xMidYMid slice" xmlns:c2pa="http://c2pa.org/manifest"><metadata><c2pa:manifest>AAAWgmp1bWIAAAAeanVtZGMycGEAEQAQgAAAqgA4m3EDYzJwYQAAABZcanVtYgAAAEdqdW1kYzJtYQARABCAAACqADibcQN1cm46YzJwYTo0MTYxMzNiNi1iNmYxLTQ2ZjgtYTU3Zi03NGVkOThhNmFiMDcAAAADl2p1bWIAAAApanVtZGMyYXMAEQAQgAAAqgA4m3EDYzJwYS5hc3NlcnRpb25zAAAAALxqdW1iAAAARGp1bWRjYm9yABEAEIAAAKoAOJtxE2MycGEuaW5ncmVkaWVudC52MwAAAAAYYzJzaDUlHmdmrpCtVGODX3jwttcAAABwY2JvcqNpZGM6Zm9ybWF0bWltYWdlL3N2Zyt4bWxqaW5zdGFuY2VJRHgseG1wOmlpZDphY2E0OGQ5NC0xOGEyLTQwNTItOTQzOS1kOGE5ZDlkZDAyODZscmVsYXRpb25zaGlwaHBhcmVudE9mAAAB4mp1bWIAAABBanVtZGNib3IAEQAQgAAAqgA4m3ETYzJwYS5hY3Rpb25zLnYyAAAAABhjMnNoz/tdnP5vqBLXRevDNK2r+AAAAZljYm9yomdhY3Rpb25zgqJmYWN0aW9ua2MycGEub3BlbmVkanBhcmFtZXRlcnOha2luZ3JlZGllbnRzgaJjdXJseC1zZWxmI2p1bWJmPWMycGEuYXNzZXJ0aW9ucy9jMnBhLmluZ3JlZGllbnQudjNkaGFzaFggPVqnoRcTW4zZvM0af31WOcCaPMh5xLtPUjmPgknwJzOkZmFjdGlvbngdY29tLmFudGhyb3BpYy5jbGF1ZGUucHJvdmlkZWRqcGFyYW1ldGVyc6F4H2NvbS5hbnRocm9waWMub3JpZ2luLWNvbmZpZGVuY2VndW5rbm93bmtkZXNjcmlwdGlvbnhmQ2xhdWRlIHByb3ZpZGVkIHRoaXMgZmlsZSBhdCB0aGUgcmVxdWVzdCBvZiBhIHVzZXIgYW5kIG1heSBoYXZlIGNyZWF0ZWQgb3IgbW9kaWZpZWQgdGhlIGZpbGUgY29udGVudHMubXNvZnR3YXJlQWdlbnShZG5hbWVmQ2xhdWRlcmFsbEFjdGlvbnNJbmNsdWRlZPUAAADIanVtYgAAAEBqdW1kY2JvcgARABCAAACqADibcRNjMnBhLmhhc2guZGF0YQAAAAAYYzJzaFj0dSWHzWHdobUsQWeJzK0AAACAY2JvcqVjYWxnZnNoYTI1NmNwYWRNAAAAAAAAAAAAAAAAAGRoYXNoWCBuht+zdkp2/YPB3q4S8uRJL2lKaVrcxPHNATf6ry1vdmRuYW1lbmp1bWJmIG1hbmlmZXN0amV4Y2x1c2lvbnOBomVzdGFydBikZmxlbmd0aBkeBAAAAj5qdW1iAAAAJ2p1bWRjMmNsABEAEIAAAKoAOJtxA2MycGEuY2xhaW0udjIAAAACD2Nib3KlY2FsZ2ZzaGEyNTZpc2lnbmF0dXJleE1zZWxmI2p1bWJmPS9jMnBhL3VybjpjMnBhOjQxNjEzM2I2LWI2ZjEtNDZmOC1hNTdmLTc0ZWQ5OGE2YWIwNy9jMnBhLnNpZ25hdHVyZWppbnN0YW5jZUlEeCx4bXA6aWlkOjE2ZmY1ZWQ2LTMyYWUtNDRhOC04MzFlLTFiODQ1MTRiNWNmYXJjcmVhdGVkX2Fzc2VydGlvbnODomN1cmx4LXNlbGYjanVtYmY9YzJwYS5hc3NlcnRpb25zL2MycGEuaW5ncmVkaWVudC52M2RoYXNoWCA9WqehFxNbjNm8zRp/fVY5wJo8yHnEu09SOY+CSfAnM6JjdXJseCpzZWxmI2p1bWJmPWMycGEuYXNzZXJ0aW9ucy9jMnBhLmFjdGlvbnMudjJkaGFzaFgg3vZZEzhR6YNzkuYcMGdc5ZDUWpFWckXxvX/dATnTSeiiY3VybHgpc2VsZiNqdW1iZj1jMnBhLmFzc2VydGlvbnMvYzJwYS5oYXNoLmRhdGFkaGFzaFggIWS9UBNMjVQRZHBincPKTf3hbXG54dYBYEyoIvcdnTN0Y2xhaW1fZ2VuZXJhdG9yX2luZm+jZG5hbWVvQW50aHJvcGljIEZpbGVzZ3ZlcnNpb25lMS4wLjBrc3BlY1ZlcnNpb25lMi40LjAAABA4anVtYgAAAChqdW1kYzJjcwARABCAAACqADibcQNjMnBhLnNpZ25hdHVyZQAAABAIY2JvctKEWQISogEmGCFZAgowggIGMIIBjaADAgECAhRA5aAK7sI50L64g/oGQgU9Z1UTADAKBggqhkjOPQQDAzBJMRcwFQYDVQQKEw5BbnRocm9waWMsIFBCQzEuMCwGA1UEAxMlQW50aHJvcGljIENvbnRlbnQgQ3JlZGVudGlhbHMgUm9vdCBDQTAeFw0yNjA4MDcxODQzNTZaFw0yODA4MDYxOTQzNTZaMEQxFzAVBgNVBAoTDkFudGhyb3BpYywgUEJDMSkwJwYDVQQDEyBBbnRocm9waWMgQ2xhdWRlIENvbnRlbnQgU2lnbmluZzBZMBMGByqGSM49AgEGCCqGSM49AwEHA0IABJh6CmvLUBgFFNU0vUKlOVtE6djd17L5SuwX0LemFisBM3dkd/3cyjxFA3Qo5S46fX0/ihY0VZ7mfb9KF703t5OjWDBWMA4GA1UdDwEB/wQEAwIHgDAVBgNVHSUEDjAMBgorBgEEAYPoXgIBMAwGA1UdEwEB/wQCMAAwHwYDVR0jBBgwFoAUzlHiBIFOZFsj+OPEz5o+nMHXXMIwCgYIKoZIzj0EAwMDZwAwZAIwMXMdFJ4BetLLVY7ORuE9noqbbAZOZn/aArXyTwFAZfKrPzxF2vPoJNf1+UCdg1XGAjBwX1zd9WGqYkqmL5SFqw1QySjr1zJfpJM9+1rdDwSPLMOPOjKuiXjoU/pUUeG9RwmhY3BhZFkNngAAAAAAAAAAAAAAAAAAAAAAAAAAAAAAAAAAAAAAAAAAAAAAAAAAAAAAAAAAAAAAAAAAAAAAAAAAAAAAAAAAAAAAAAAAAAAAAAAAAAAAAAAAAAAAAAAAAAAAAAAAAAAAAAAAAAAAAAAAAAAAAAAAAAAAAAAAAAAAAAAAAAAAAAAAAAAAAAAAAAAAAAAAAAAAAAAAAAAAAAAAAAAAAAAAAAAAAAAAAAAAAAAAAAAAAAAAAAAAAAAAAAAAAAAAAAAAAAAAAAAAAAAAAAAAAAAAAAAAAAAAAAAAAAAAAAAAAAAAAAAAAAAAAAAAAAAAAAAAAAAAAAAAAAAAAAAAAAAAAAAAAAAAAAAAAAAAAAAAAAAAAAAAAAAAAAAAAAAAAAAAAAAAAAAAAAAAAAAAAAAAAAAAAAAAAAAAAAAAAAAAAAAAAAAAAAAAAAAAAAAAAAAAAAAAAAAAAAAAAAAAAAAAAAAAAAAAAAAAAAAAAAAAAAAAAAAAAAAAAAAAAAAAAAAAAAAAAAAAAAAAAAAAAAAAAAAAAAAAAAAAAAAAAAAAAAAAAAAAAAAAAAAAAAAAAAAAAAAAAAAAAAAAAAAAAAAAAAAAAAAAAAAAAAAAAAAAAAAAAAAAAAAAAAAAAAAAAAAAAAAAAAAAAAAAAAAAAAAAAAAAAAAAAAAAAAAAAAAAAAAAAAAAAAAAAAAAAAAAAAAAAAAAAAAAAAAAAAAAAAAAAAAAAAAAAAAAAAAAAAAAAAAAAAAAAAAAAAAAAAAAAAAAAAAAAAAAAAAAAAAAAAAAAAAAAAAAAAAAAAAAAAAAAAAAAAAAAAAAAAAAAAAAAAAAAAAAAAAAAAAAAAAAAAAAAAAAAAAAAAAAAAAAAAAAAAAAAAAAAAAAAAAAAAAAAAAAAAAAAAAAAAAAAAAAAAAAAAAAAAAAAAAAAAAAAAAAAAAAAAAAAAAAAAAAAAAAAAAAAAAAAAAAAAAAAAAAAAAAAAAAAAAAAAAAAAAAAAAAAAAAAAAAAAAAAAAAAAAAAAAAAAAAAAAAAAAAAAAAAAAAAAAAAAAAAAAAAAAAAAAAAAAAAAAAAAAAAAAAAAAAAAAAAAAAAAAAAAAAAAAAAAAAAAAAAAAAAAAAAAAAAAAAAAAAAAAAAAAAAAAAAAAAAAAAAAAAAAAAAAAAAAAAAAAAAAAAAAAAAAAAAAAAAAAAAAAAAAAAAAAAAAAAAAAAAAAAAAAAAAAAAAAAAAAAAAAAAAAAAAAAAAAAAAAAAAAAAAAAAAAAAAAAAAAAAAAAAAAAAAAAAAAAAAAAAAAAAAAAAAAAAAAAAAAAAAAAAAAAAAAAAAAAAAAAAAAAAAAAAAAAAAAAAAAAAAAAAAAAAAAAAAAAAAAAAAAAAAAAAAAAAAAAAAAAAAAAAAAAAAAAAAAAAAAAAAAAAAAAAAAAAAAAAAAAAAAAAAAAAAAAAAAAAAAAAAAAAAAAAAAAAAAAAAAAAAAAAAAAAAAAAAAAAAAAAAAAAAAAAAAAAAAAAAAAAAAAAAAAAAAAAAAAAAAAAAAAAAAAAAAAAAAAAAAAAAAAAAAAAAAAAAAAAAAAAAAAAAAAAAAAAAAAAAAAAAAAAAAAAAAAAAAAAAAAAAAAAAAAAAAAAAAAAAAAAAAAAAAAAAAAAAAAAAAAAAAAAAAAAAAAAAAAAAAAAAAAAAAAAAAAAAAAAAAAAAAAAAAAAAAAAAAAAAAAAAAAAAAAAAAAAAAAAAAAAAAAAAAAAAAAAAAAAAAAAAAAAAAAAAAAAAAAAAAAAAAAAAAAAAAAAAAAAAAAAAAAAAAAAAAAAAAAAAAAAAAAAAAAAAAAAAAAAAAAAAAAAAAAAAAAAAAAAAAAAAAAAAAAAAAAAAAAAAAAAAAAAAAAAAAAAAAAAAAAAAAAAAAAAAAAAAAAAAAAAAAAAAAAAAAAAAAAAAAAAAAAAAAAAAAAAAAAAAAAAAAAAAAAAAAAAAAAAAAAAAAAAAAAAAAAAAAAAAAAAAAAAAAAAAAAAAAAAAAAAAAAAAAAAAAAAAAAAAAAAAAAAAAAAAAAAAAAAAAAAAAAAAAAAAAAAAAAAAAAAAAAAAAAAAAAAAAAAAAAAAAAAAAAAAAAAAAAAAAAAAAAAAAAAAAAAAAAAAAAAAAAAAAAAAAAAAAAAAAAAAAAAAAAAAAAAAAAAAAAAAAAAAAAAAAAAAAAAAAAAAAAAAAAAAAAAAAAAAAAAAAAAAAAAAAAAAAAAAAAAAAAAAAAAAAAAAAAAAAAAAAAAAAAAAAAAAAAAAAAAAAAAAAAAAAAAAAAAAAAAAAAAAAAAAAAAAAAAAAAAAAAAAAAAAAAAAAAAAAAAAAAAAAAAAAAAAAAAAAAAAAAAAAAAAAAAAAAAAAAAAAAAAAAAAAAAAAAAAAAAAAAAAAAAAAAAAAAAAAAAAAAAAAAAAAAAAAAAAAAAAAAAAAAAAAAAAAAAAAAAAAAAAAAAAAAAAAAAAAAAAAAAAAAAAAAAAAAAAAAAAAAAAAAAAAAAAAAAAAAAAAAAAAAAAAAAAAAAAAAAAAAAAAAAAAAAAAAAAAAAAAAAAAAAAAAAAAAAAAAAAAAAAAAAAAAAAAAAAAAAAAAAAAAAAAAAAAAAAAAAAAAAAAAAAAAAAAAAAAAAAAAAAAAAAAAAAAAAAAAAAAAAAAAAAAAAAAAAAAAAAAAAAAAAAAAAAAAAAAAAAAAAAAAAAAAAAAAAAAAAAAAAAAAAAAAAAAAAAAAAAAAAAAAAAAAAAAAAAAAAAAAAAAAAAAAAAAAAAAAAAAAAAAAAAAAAAAAAAAAAAAAAAAAAAAAAAAAAAAAAAAAAAAAAAAAAAAAAAAAAAAAAAAAAAAAAAAAAAAAAAAAAAAAAAAAAAAAAAAAAAAAAAAAAAAAAAAAAAAAAAAAAAAAAAAAAAAAAAAAAAAAAAAAAAAAAAAAAAAAAAAAAAAAAAAAAAAAAAAAAAAAAAAAAAAAAAAAAAAAAAAAAAAAAAAAAAAAAAAAAAAAAAAAAAAAAAAAAAAAAAAAAAAAAAAAAAAAAAAAAAAAAAAAAAAAAAAAAAAAAAAAAAAAAAAAAAAAAAAAAAAAAAAAAAAAAAAAAAAAAAAAAAAAAAAAAAAAAAAAAAAAAAAAAAAAAAAAAAAAAAAAAAAAAAAAAAAAAAAAAAAAAAAAAAAAAAAAAAAAAAAAAAAAAAAAAAAAAAAAAAAAAAAAAAAAAAAAAAAAAAAAAAAAAAAAAAAAAAAAAAAAAAAAAAAAAAAAAAAAAAAAAAAAAAAAAAAAAAAAAAAAAAAAAAAAAAAAAAAAAAAAAAAAAAAAAAAAAAAAAAAAAAAAAAAAAAAAAAAAAAAAAAAAAAAAAAAAAAAAAAAAAAAAAAAAAAAAAAAAAAAAAAAAAAAAAAAAAAAAAAAAAAAAAAAAAAAAAAAAAAAAAAAAAAAAAAAAAAAAAAAAAAAAAAAAAAAAAAAAAAAAAAAAAAAAAAAAAAAAAAAAAAAAAAAAAAAAAAAAAAAAAAAAAAAAAAAAAAAAAAAAAAAAAAAAAAAAAAAAAAAAAAAAAAAAAAAAAAAAAAAAAAAAAAAAAAAAAAAAAAAAAAAAAAAAAAAAAAAAAAAAAAAAAAAAAAAAAAAAAAAAAAAAAAAAAAAAAAAAAAAAAAAAAAAAAAAAAAAAAAAAAAAAAAAAAAAAAAAAAAAAAAAAAAAAAAAAAAAAAAAAAAAAAAAAAAAAAAAAAAAAAAAAAAAAAAAAAAAAAAAAAAAAAAAAAAAAAAAAAAAAAAAAAAAAAAAAAAAAAAAAAAAAAAAAAAAAAAAAAAAAAAAAAAAAAAAAAAAAAAAAAAAAAAAAAAAAAAAAAAAAAAAAAAAAAAAAAAAAAAAAAAAAAAAAAAAAAAAAAAAAAAAAAAAAAAAAAAAAAAAAAAAAAAAAAAAAAAAAAAAAAAAAAAAAAAAAAAAAAAAAAAAAAAAAAAAAAAAAAAAAAAAAAAAAAAAAAAAAAAAAAAAAAAAAAAAAAAAAAAAAAAAAAAAAAAAAAAAAAAAAAAAAAAAAAAAAAAAAAAAAAAAAAAAAAAAAAAAAAAAAAAAAAAAAAAAAAAAAAAAAAAAAAAAAAAAAAAAAAAAAAAAAAAAAAAAAAAAAAAAAAAAAAAAAAAAAAAAAAAAAAAAAAAAAAAAAAAAAAAAAAAAAAAAAAAAAAAAAAAAAAAAAAAAAAAAAAAAAAAAAAAAAAAAAAAAAAAAAAAAAAAAAAAAAAAAAAAAAAAAAAAAAAAAAAAAAAAAAAAAAAAAAAAAAAAAAAAAAAAAAAAAAAAAAAAAAAAAAAAAAAAAAAAAAAAAAAAAAAAAAAAAAAAAAAAAAAAAAAAAAAAAAAAAAAAAAAAAAAAAAAAAAAAAAAAAAAAAAAAAAAAAAAAAAAAAAAAAAAAAAAAAAAAAAAAAAAAAAAAAAAAAAAAAAAAAAAAAAAAAAAAAAAAAAAAAAAAAAAAAAAAAAAAAAAAAAAAAAAAAAAAAAAAAAAAAAAAAAAAAAAAAAAAAAAAAAAAAAAAAAAAAAAAAAAAAAAAAAAAAAAAAAAAAAAAAAAAAAAAAAAAAAAAAAAAAAAAAAAAAAAAAAAAAAAAAAAAAAAAAAAAAAAAAAAAAAAAAAAAAAAAAAAAAAAAAAAAAAAAAAAAAAAAAAAAAAAPZYQO2UiGq15mY8Jipmh7njsxq4IPofq1C6iIn27YK+mFXi0xy0LV/US2EDXYwy4cUJMQ7PXTkF/1Wjut+8An8u/TA=</c2pa:manifest></metadata><defs><linearGradient id="b" x1="0" y1="0" x2=".35" y2="1"><stop offset="0" stop-color="#16243a"></stop><stop offset="1" stop-color="#0b1017"></stop></linearGradient><radialGradient id="g" cx="1" cy="0" r=".75"><stop offset="0" stop-color="#f6bb45" stop-opacity=".22"></stop><stop offset="1" stop-color="#f6bb45" stop-opacity="0"></stop></radialGradient><radialGradient id="u" cx="0" cy="1" r=".85"><stop offset="0" stop-color="#3b78eb" stop-opacity=".3"></stop><stop offset="1" stop-color="#3b78eb" stop-opacity="0"></stop></radialGradient></defs><rect width="1920" height="1080" fill="url(#b)"></rect><rect width="1920" height="1080" fill="url(#u)"></rect><rect width="1920" height="1080" fill="url(#g)"></rect><g shape-rendering="crispEdges"><rect x="0" y="640" width="24" height="440" fill="#8fb6ff" opacity="0.028"></rect><rect x="24" y="648" width="24" height="432" fill="#8fb6ff" opacity="0.028"></rect><rect x="48" y="656" width="24" height="424" fill="#8fb6ff" opacity="0.028"></rect><rect x="72" y="664" width="24" height="416" fill="#8fb6ff" opacity="0.028"></rect><rect x="96" y="664" width="24" height="416" fill="#8fb6ff" opacity="0.028"></rect><rect x="120" y="664" width="24" height="416" fill="#8fb6ff" opacity="0.028"></rect><rect x="144" y="672" width="24" height="408" fill="#8fb6ff" opacity="0.028"></rect><rect x="168" y="664" width="24" height="416" fill="#8fb6ff" opacity="0.028"></rect><rect x="192" y="664" width="24" height="416" fill="#8fb6ff" opacity="0.028"></rect><rect x="216" y="664" width="24" height="416" fill="#8fb6ff" opacity="0.028"></rect><rect x="240" y="664" width="24" height="416" fill="#8fb6ff" opacity="0.028"></rect><rect x="264" y="656" width="24" height="424" fill="#8fb6ff" opacity="0.028"></rect><rect x="288" y="656" width="24" height="424" fill="#8fb6ff" opacity="0.028"></rect><rect x="312" y="656" width="24" height="424" fill="#8fb6ff" opacity="0.028"></rect><rect x="336" y="656" width="24" height="424" fill="#8fb6ff" opacity="0.028"></rect><rect x="360" y="664" width="24" height="416" fill="#8fb6ff" opacity="0.028"></rect><rect x="384" y="664" width="24" height="416" fill="#8fb6ff" opacity="0.028"></rect><rect x="408" y="664" width="24" height="416" fill="#8fb6ff" opacity="0.028"></rect><rect x="432" y="664" width="24" height="416" fill="#8fb6ff" opacity="0.028"></rect><rect x="456" y="664" width="24" height="416" fill="#8fb6ff" opacity="0.028"></rect><rect x="480" y="656" width="24" height="424" fill="#8fb6ff" opacity="0.028"></rect><rect x="504" y="656" width="24" height="424" fill="#8fb6ff" opacity="0.028"></rect><rect x="528" y="648" width="24" height="432" fill="#8fb6ff" opacity="0.028"></rect><rect x="552" y="640" width="24" height="440" fill="#8fb6ff" opacity="0.028"></rect><rect x="576" y="632" width="24" height="448" fill="#8fb6ff" opacity="0.028"></rect><rect x="600" y="624" width="24" height="456" fill="#8fb6ff" opacity="0.028"></rect><rect x="624" y="616" width="24" height="464" fill="#8fb6ff" opacity="0.028"></rect><rect x="648" y="616" width="24" height="464" fill="#8fb6ff" opacity="0.028"></rect><rect x="672" y="608" width="24" height="472" fill="#8fb6ff" opacity="0.028"></rect><rect x="696" y="608" width="24" height="472" fill="#8fb6ff" opacity="0.028"></rect><rect x="720" y="608" width="24" height="472" fill="#8fb6ff" opacity="0.028"></rect><rect x="744" y="608" width="24" height="472" fill="#8fb6ff" opacity="0.028"></rect><rect x="768" y="616" width="24" height="464" fill="#8fb6ff" opacity="0.028"></rect><rect x="792" y="616" width="24" height="464" fill="#8fb6ff" opacity="0.028"></rect><rect x="816" y="616" width="24" height="464" fill="#8fb6ff" opacity="0.028"></rect><rect x="840" y="624" width="24" height="456" fill="#8fb6ff" opacity="0.028"></rect><rect x="864" y="624" width="24" height="456" fill="#8fb6ff" opacity="0.028"></rect><rect x="888" y="624" width="24" height="456" fill="#8fb6ff" opacity="0.028"></rect><rect x="912" y="624" width="24" height="456" fill="#8fb6ff" opacity="0.028"></rect><rect x="936" y="624" width="24" height="456" fill="#8fb6ff" opacity="0.028"></rect><rect x="960" y="624" width="24" height="456" fill="#8fb6ff" opacity="0.028"></rect><rect x="984" y="624" width="24" height="456" fill="#8fb6ff" opacity="0.028"></rect><rect x="1008" y="624" width="24" height="456" fill="#8fb6ff" opacity="0.028"></rect><rect x="1032" y="624" width="24" height="456" fill="#8fb6ff" opacity="0.028"></rect><rect x="1056" y="632" width="24" height="448" fill="#8fb6ff" opacity="0.028"></rect><rect x="1080" y="632" width="24" height="448" fill="#8fb6ff" opacity="0.028"></rect><rect x="1104" y="640" width="24" height="440" fill="#8fb6ff" opacity="0.028"></rect><rect x="1128" y="648" width="24" height="432" fill="#8fb6ff" opacity="0.028"></rect><rect x="1152" y="656" width="24" height="424" fill="#8fb6ff" opacity="0.028"></rect><rect x="1176" y="664" width="24" height="416" fill="#8fb6ff" opacity="0.028"></rect><rect x="1200" y="664" width="24" height="416" fill="#8fb6ff" opacity="0.028"></rect><rect x="1224" y="672" width="24" height="408" fill="#8fb6ff" opacity="0.028"></rect><rect x="1248" y="672" width="24" height="408" fill="#8fb6ff" opacity="0.028"></rect><rect x="1272" y="672" width="24" height="408" fill="#8fb6ff" opacity="0.028"></rect><rect x="1296" y="672" width="24" height="408" fill="#8fb6ff" opacity="0.028"></rect><rect x="1320" y="672" width="24" height="408" fill="#8fb6ff" opacity="0.028"></rect><rect x="1344" y="664" width="24" height="416" fill="#8fb6ff" opacity="0.028"></rect><rect x="1368" y="664" width="24" height="416" fill="#8fb6ff" opacity="0.028"></rect><rect x="1392" y="656" width="24" height="424" fill="#8fb6ff" opacity="0.028"></rect><rect x="1416" y="656" width="24" height="424" fill="#8fb6ff" opacity="0.028"></rect><rect x="1440" y="656" width="24" height="424" fill="#8fb6ff" opacity="0.028"></rect><rect x="1464" y="648" width="24" height="432" fill="#8fb6ff" opacity="0.028"></rect><rect x="1488" y="648" width="24" height="432" fill="#8fb6ff" opacity="0.028"></rect><rect x="1512" y="648" width="24" height="432" fill="#8fb6ff" opacity="0.028"></rect><rect x="1536" y="648" width="24" height="432" fill="#8fb6ff" opacity="0.028"></rect><rect x="1560" y="648" width="24" height="432" fill="#8fb6ff" opacity="0.028"></rect><rect x="1584" y="648" width="24" height="432" fill="#8fb6ff" opacity="0.028"></rect><rect x="1608" y="648" width="24" height="432" fill="#8fb6ff" opacity="0.028"></rect><rect x="1632" y="648" width="24" height="432" fill="#8fb6ff" opacity="0.028"></rect><rect x="1656" y="640" width="24" height="440" fill="#8fb6ff" opacity="0.028"></rect><rect x="1680" y="632" width="24" height="448" fill="#8fb6ff" opacity="0.028"></rect><rect x="1704" y="624" width="24" height="456" fill="#8fb6ff" opacity="0.028"></rect><rect x="1728" y="624" width="24" height="456" fill="#8fb6ff" opacity="0.028"></rect><rect x="1752" y="616" width="24" height="464" fill="#8fb6ff" opacity="0.028"></rect><rect x="1776" y="608" width="24" height="472" fill="#8fb6ff" opacity="0.028"></rect><rect x="1800" y="608" width="24" height="472" fill="#8fb6ff" opacity="0.028"></rect><rect x="1824" y="600" width="24" height="480" fill="#8fb6ff" opacity="0.028"></rect><rect x="1848" y="600" width="24" height="480" fill="#8fb6ff" opacity="0.028"></rect><rect x="1872" y="608" width="24" height="472" fill="#8fb6ff" opacity="0.028"></rect><rect x="1896" y="608" width="24" height="472" fill="#8fb6ff" opacity="0.028"></rect><rect x="0" y="792" width="24" height="288" fill="#8fb6ff" opacity="0.028"></rect><rect x="24" y="792" width="24" height="288" fill="#8fb6ff" opacity="0.028"></rect><rect x="48" y="792" width="24" height="288" fill="#8fb6ff" opacity="0.028"></rect><rect x="72" y="784" width="24" height="296" fill="#8fb6ff" opacity="0.028"></rect><rect x="96" y="784" width="24" height="296" fill="#8fb6ff" opacity="0.028"></rect><rect x="120" y="776" width="24" height="304" fill="#8fb6ff" opacity="0.028"></rect><rect x="144" y="768" width="24" height="312" fill="#8fb6ff" opacity="0.028"></rect><rect x="168" y="760" width="24" height="320" fill="#8fb6ff" opacity="0.028"></rect><rect x="192" y="752" width="24" height="328" fill="#8fb6ff" opacity="0.028"></rect><rect x="216" y="744" width="24" height="336" fill="#8fb6ff" opacity="0.028"></rect><rect x="240" y="744" width="24" height="336" fill="#8fb6ff" opacity="0.028"></rect><rect x="264" y="744" width="24" height="336" fill="#8fb6ff" opacity="0.028"></rect><rect x="288" y="736" width="24" height="344" fill="#8fb6ff" opacity="0.028"></rect><rect x="312" y="744" width="24" height="336" fill="#8fb6ff" opacity="0.028"></rect><rect x="336" y="744" width="24" height="336" fill="#8fb6ff" opacity="0.028"></rect><rect x="360" y="744" width="24" height="336" fill="#8fb6ff" opacity="0.028"></rect><rect x="384" y="744" width="24" height="336" fill="#8fb6ff" opacity="0.028"></rect><rect x="408" y="744" width="24" height="336" fill="#8fb6ff" opacity="0.028"></rect><rect x="432" y="744" width="24" height="336" fill="#8fb6ff" opacity="0.028"></rect><rect x="456" y="744" width="24" height="336" fill="#8fb6ff" opacity="0.028"></rect><rect x="480" y="736" width="24" height="344" fill="#8fb6ff" opacity="0.028"></rect><rect x="504" y="736" width="24" height="344" fill="#8fb6ff" opacity="0.028"></rect><rect x="528" y="728" width="24" height="352" fill="#8fb6ff" opacity="0.028"></rect><rect x="552" y="728" width="24" height="352" fill="#8fb6ff" opacity="0.028"></rect><rect x="576" y="728" width="24" height="352" fill="#8fb6ff" opacity="0.028"></rect><rect x="600" y="728" width="24" height="352" fill="#8fb6ff" opacity="0.028"></rect><rect x="624" y="736" width="24" height="344" fill="#8fb6ff" opacity="0.028"></rect><rect x="648" y="736" width="24" height="344" fill="#8fb6ff" opacity="0.028"></rect><rect x="672" y="744" width="24" height="336" fill="#8fb6ff" opacity="0.028"></rect><rect x="696" y="752" width="24" height="328" fill="#8fb6ff" opacity="0.028"></rect><rect x="720" y="760" width="24" height="320" fill="#8fb6ff" opacity="0.028"></rect><rect x="744" y="768" width="24" height="312" fill="#8fb6ff" opacity="0.028"></rect><rect x="768" y="776" width="24" height="304" fill="#8fb6ff" opacity="0.028"></rect><rect x="792" y="784" width="24" height="296" fill="#8fb6ff" opacity="0.028"></rect><rect x="816" y="784" width="24" height="296" fill="#8fb6ff" opacity="0.028"></rect><rect x="840" y="784" width="24" height="296" fill="#8fb6ff" opacity="0.028"></rect><rect x="864" y="784" width="24" height="296" fill="#8fb6ff" opacity="0.028"></rect><rect x="888" y="784" width="24" height="296" fill="#8fb6ff" opacity="0.028"></rect><rect x="912" y="784" width="24" height="296" fill="#8fb6ff" opacity="0.028"></rect><rect x="936" y="784" width="24" height="296" fill="#8fb6ff" opacity="0.028"></rect><rect x="960" y="776" width="24" height="304" fill="#8fb6ff" opacity="0.028"></rect><rect x="984" y="776" width="24" height="304" fill="#8fb6ff" opacity="0.028"></rect><rect x="1008" y="776" width="24" height="304" fill="#8fb6ff" opacity="0.028"></rect><rect x="1032" y="776" width="24" height="304" fill="#8fb6ff" opacity="0.028"></rect><rect x="1056" y="784" width="24" height="296" fill="#8fb6ff" opacity="0.028"></rect><rect x="1080" y="784" width="24" height="296" fill="#8fb6ff" opacity="0.028"></rect><rect x="1104" y="784" width="24" height="296" fill="#8fb6ff" opacity="0.028"></rect><rect x="1128" y="784" width="24" height="296" fill="#8fb6ff" opacity="0.028"></rect><rect x="1152" y="784" width="24" height="296" fill="#8fb6ff" opacity="0.028"></rect><rect x="1176" y="784" width="24" height="296" fill="#8fb6ff" opacity="0.028"></rect><rect x="1200" y="776" width="24" height="304" fill="#8fb6ff" opacity="0.028"></rect><rect x="1224" y="776" width="24" height="304" fill="#8fb6ff" opacity="0.028"></rect><rect x="1248" y="768" width="24" height="312" fill="#8fb6ff" opacity="0.028"></rect><rect x="1272" y="760" width="24" height="320" fill="#8fb6ff" opacity="0.028"></rect><rect x="1296" y="752" width="24" height="328" fill="#8fb6ff" opacity="0.028"></rect><rect x="1320" y="744" width="24" height="336" fill="#8fb6ff" opacity="0.028"></rect><rect x="1344" y="736" width="24" height="344" fill="#8fb6ff" opacity="0.028"></rect><rect x="1368" y="736" width="24" height="344" fill="#8fb6ff" opacity="0.028"></rect><rect x="1392" y="728" width="24" height="352" fill="#8fb6ff" opacity="0.028"></rect><rect x="1416" y="728" width="24" height="352" fill="#8fb6ff" opacity="0.028"></rect><rect x="1440" y="728" width="24" height="352" fill="#8fb6ff" opacity="0.028"></rect><rect x="1464" y="736" width="24" height="344" fill="#8fb6ff" opacity="0.028"></rect><rect x="1488" y="736" width="24" height="344" fill="#8fb6ff" opacity="0.028"></rect><rect x="1512" y="736" width="24" height="344" fill="#8fb6ff" opacity="0.028"></rect><rect x="1536" y="744" width="24" height="336" fill="#8fb6ff" opacity="0.028"></rect><rect x="1560" y="744" width="24" height="336" fill="#8fb6ff" opacity="0.028"></rect><rect x="1584" y="744" width="24" height="336" fill="#8fb6ff" opacity="0.028"></rect><rect x="1608" y="744" width="24" height="336" fill="#8fb6ff" opacity="0.028"></rect><rect x="1632" y="744" width="24" height="336" fill="#8fb6ff" opacity="0.028"></rect><rect x="1656" y="744" width="24" height="336" fill="#8fb6ff" opacity="0.028"></rect><rect x="1680" y="736" width="24" height="344" fill="#8fb6ff" opacity="0.028"></rect><rect x="1704" y="736" width="24" height="344" fill="#8fb6ff" opacity="0.028"></rect><rect x="1728" y="744" width="24" height="336" fill="#8fb6ff" opacity="0.028"></rect><rect x="1752" y="744" width="24" height="336" fill="#8fb6ff" opacity="0.028"></rect><rect x="1776" y="744" width="24" height="336" fill="#8fb6ff" opacity="0.028"></rect><rect x="1800" y="752" width="24" height="328" fill="#8fb6ff" opacity="0.028"></rect><rect x="1824" y="760" width="24" height="320" fill="#8fb6ff" opacity="0.028"></rect><rect x="1848" y="768" width="24" height="312" fill="#8fb6ff" opacity="0.028"></rect><rect x="1872" y="776" width="24" height="304" fill="#8fb6ff" opacity="0.028"></rect><rect x="1896" y="784" width="24" height="296" fill="#8fb6ff" opacity="0.028"></rect><rect x="0" y="864" width="24" height="216" fill="#8fb6ff" opacity="0.028"></rect><rect x="24" y="864" width="24" height="216" fill="#8fb6ff" opacity="0.028"></rect><rect x="48" y="856" width="24" height="224" fill="#8fb6ff" opacity="0.028"></rect><rect x="72" y="856" width="24" height="224" fill="#8fb6ff" opacity="0.028"></rect><rect x="96" y="848" width="24" height="232" fill="#8fb6ff" opacity="0.028"></rect><rect x="120" y="848" width="24" height="232" fill="#8fb6ff" opacity="0.028"></rect><rect x="144" y="840" width="24" height="240" fill="#8fb6ff" opacity="0.028"></rect><rect x="168" y="840" width="24" height="240" fill="#8fb6ff" opacity="0.028"></rect><rect x="192" y="848" width="24" height="232" fill="#8fb6ff" opacity="0.028"></rect><rect x="216" y="848" width="24" height="232" fill="#8fb6ff" opacity="0.028"></rect><rect x="240" y="856" width="24" height="224" fill="#8fb6ff" opacity="0.028"></rect><rect x="264" y="864" width="24" height="216" fill="#8fb6ff" opacity="0.028"></rect><rect x="288" y="872" width="24" height="208" fill="#8fb6ff" opacity="0.028"></rect><rect x="312" y="872" width="24" height="208" fill="#8fb6ff" opacity="0.028"></rect><rect x="336" y="880" width="24" height="200" fill="#8fb6ff" opacity="0.028"></rect><rect x="360" y="888" width="24" height="192" fill="#8fb6ff" opacity="0.028"></rect><rect x="384" y="888" width="24" height="192" fill="#8fb6ff" opacity="0.028"></rect><rect x="408" y="888" width="24" height="192" fill="#8fb6ff" opacity="0.028"></rect><rect x="432" y="888" width="24" height="192" fill="#8fb6ff" opacity="0.028"></rect><rect x="456" y="888" width="24" height="192" fill="#8fb6ff" opacity="0.028"></rect><rect x="480" y="888" width="24" height="192" fill="#8fb6ff" opacity="0.028"></rect><rect x="504" y="888" width="24" height="192" fill="#8fb6ff" opacity="0.028"></rect><rect x="528" y="888" width="24" height="192" fill="#8fb6ff" opacity="0.028"></rect><rect x="552" y="896" width="24" height="184" fill="#8fb6ff" opacity="0.028"></rect><rect x="576" y="896" width="24" height="184" fill="#8fb6ff" opacity="0.028"></rect><rect x="600" y="896" width="24" height="184" fill="#8fb6ff" opacity="0.028"></rect><rect x="624" y="904" width="24" height="176" fill="#8fb6ff" opacity="0.028"></rect><rect x="648" y="912" width="24" height="168" fill="#8fb6ff" opacity="0.028"></rect><rect x="672" y="912" width="24" height="168" fill="#8fb6ff" opacity="0.028"></rect><rect x="696" y="912" width="24" height="168" fill="#8fb6ff" opacity="0.028"></rect><rect x="720" y="912" width="24" height="168" fill="#8fb6ff" opacity="0.028"></rect><rect x="744" y="912" width="24" height="168" fill="#8fb6ff" opacity="0.028"></rect><rect x="768" y="912" width="24" height="168" fill="#8fb6ff" opacity="0.028"></rect><rect x="792" y="904" width="24" height="176" fill="#8fb6ff" opacity="0.028"></rect><rect x="816" y="896" width="24" height="184" fill="#8fb6ff" opacity="0.028"></rect><rect x="840" y="896" width="24" height="184" fill="#8fb6ff" opacity="0.028"></rect><rect x="864" y="888" width="24" height="192" fill="#8fb6ff" opacity="0.028"></rect><rect x="888" y="880" width="24" height="200" fill="#8fb6ff" opacity="0.028"></rect><rect x="912" y="872" width="24" height="208" fill="#8fb6ff" opacity="0.028"></rect><rect x="936" y="864" width="24" height="216" fill="#8fb6ff" opacity="0.028"></rect><rect x="960" y="864" width="24" height="216" fill="#8fb6ff" opacity="0.028"></rect><rect x="984" y="864" width="24" height="216" fill="#8fb6ff" opacity="0.028"></rect><rect x="1008" y="864" width="24" height="216" fill="#8fb6ff" opacity="0.028"></rect><rect x="1032" y="864" width="24" height="216" fill="#8fb6ff" opacity="0.028"></rect><rect x="1056" y="864" width="24" height="216" fill="#8fb6ff" opacity="0.028"></rect><rect x="1080" y="864" width="24" height="216" fill="#8fb6ff" opacity="0.028"></rect><rect x="1104" y="864" width="24" height="216" fill="#8fb6ff" opacity="0.028"></rect><rect x="1128" y="864" width="24" height="216" fill="#8fb6ff" opacity="0.028"></rect><rect x="1152" y="864" width="24" height="216" fill="#8fb6ff" opacity="0.028"></rect><rect x="1176" y="856" width="24" height="224" fill="#8fb6ff" opacity="0.028"></rect><rect x="1200" y="856" width="24" height="224" fill="#8fb6ff" opacity="0.028"></rect><rect x="1224" y="848" width="24" height="232" fill="#8fb6ff" opacity="0.028"></rect><rect x="1248" y="848" width="24" height="232" fill="#8fb6ff" opacity="0.028"></rect><rect x="1272" y="848" width="24" height="232" fill="#8fb6ff" opacity="0.028"></rect><rect x="1296" y="848" width="24" height="232" fill="#8fb6ff" opacity="0.028"></rect><rect x="1320" y="848" width="24" height="232" fill="#8fb6ff" opacity="0.028"></rect><rect x="1344" y="856" width="24" height="224" fill="#8fb6ff" opacity="0.028"></rect><rect x="1368" y="856" width="24" height="224" fill="#8fb6ff" opacity="0.028"></rect><rect x="1392" y="864" width="24" height="216" fill="#8fb6ff" opacity="0.028"></rect><rect x="1416" y="872" width="24" height="208" fill="#8fb6ff" opacity="0.028"></rect><rect x="1440" y="880" width="24" height="200" fill="#8fb6ff" opacity="0.028"></rect><rect x="1464" y="888" width="24" height="192" fill="#8fb6ff" opacity="0.028"></rect><rect x="1488" y="896" width="24" height="184" fill="#8fb6ff" opacity="0.028"></rect><rect x="1512" y="896" width="24" height="184" fill="#8fb6ff" opacity="0.028"></rect><rect x="1536" y="904" width="24" height="176" fill="#8fb6ff" opacity="0.028"></rect><rect x="1560" y="904" width="24" height="176" fill="#8fb6ff" opacity="0.028"></rect><rect x="1584" y="904" width="24" height="176" fill="#8fb6ff" opacity="0.028"></rect><rect x="1608" y="904" width="24" height="176" fill="#8fb6ff" opacity="0.028"></rect><rect x="1632" y="896" width="24" height="184" fill="#8fb6ff" opacity="0.028"></rect><rect x="1656" y="896" width="24" height="184" fill="#8fb6ff" opacity="0.028"></rect><rect x="1680" y="896" width="24" height="184" fill="#8fb6ff" opacity="0.028"></rect><rect x="1704" y="896" width="24" height="184" fill="#8fb6ff" opacity="0.028"></rect><rect x="1728" y="896" width="24" height="184" fill="#8fb6ff" opacity="0.028"></rect><rect x="1752" y="904" width="24" height="176" fill="#8fb6ff" opacity="0.028"></rect><rect x="1776" y="904" width="24" height="176" fill="#8fb6ff" opacity="0.028"></rect><rect x="1800" y="904" width="24" height="176" fill="#8fb6ff" opacity="0.028"></rect><rect x="1824" y="904" width="24" height="176" fill="#8fb6ff" opacity="0.028"></rect><rect x="1848" y="912" width="24" height="168" fill="#8fb6ff" opacity="0.028"></rect><rect x="1872" y="904" width="24" height="176" fill="#8fb6ff" opacity="0.028"></rect><rect x="1896" y="904" width="24" height="176" fill="#8fb6ff" opacity="0.028"></rect><rect x="1768" y="312" width="4" height="4" fill="#ffd27a" opacity="0.22"></rect><rect x="632" y="812" width="6" height="6" fill="#e9eef5" opacity="0.18"></rect><rect x="1220" y="884" width="6" height="6" fill="#ffd27a" opacity="0.14"></rect><rect x="1340" y="60" width="6" height="6" fill="#e9eef5" opacity="0.16"></rect><rect x="1552" y="132" width="8" height="8" fill="#e9eef5" opacity="0.26"></rect><rect x="1236" y="624" width="6" height="6" fill="#e9eef5" opacity="0.26"></rect><rect x="644" y="904" width="4" height="4" fill="#e9eef5" opacity="0.09"></rect><rect x="824" y="320" width="4" height="4" fill="#e9eef5" opacity="0.18"></rect><rect x="1684" y="64" width="6" height="6" fill="#e9eef5" opacity="0.18"></rect><rect x="808" y="208" width="6" height="6" fill="#e9eef5" opacity="0.07"></rect><rect x="660" y="716" width="4" height="4" fill="#e9eef5" opacity="0.17"></rect><rect x="780" y="308" width="4" height="4" fill="#e9eef5" opacity="0.15"></rect><rect x="1020" y="664" width="4" height="4" fill="#ffd27a" opacity="0.26"></rect><rect x="1656" y="684" width="4" height="4" fill="#e9eef5" opacity="0.17"></rect><rect x="1324" y="1016" width="6" height="6" fill="#e9eef5" opacity="0.22"></rect><rect x="1128" y="380" width="4" height="4" fill="#e9eef5" opacity="0.15"></rect><rect x="1684" y="120" width="8" height="8" fill="#e9eef5" opacity="0.08"></rect><rect x="296" y="84" width="4" height="4" fill="#e9eef5" opacity="0.11"></rect><rect x="276" y="492" width="6" height="6" fill="#e9eef5" opacity="0.09"></rect><rect x="1700" y="960" width="8" height="8" fill="#e9eef5" opacity="0.26"></rect><rect x="528" y="12" width="8" height="8" fill="#ffd27a" opacity="0.08"></rect><rect x="1184" y="248" width="4" height="4" fill="#e9eef5" opacity="0.17"></rect><rect x="456" y="952" width="6" height="6" fill="#ffd27a" opacity="0.14"></rect><rect x="228" y="528" width="8" height="8" fill="#ffd27a" opacity="0.26"></rect><rect x="1772" y="24" width="6" height="6" fill="#e9eef5" opacity="0.10"></rect><rect x="1084" y="732" width="8" height="8" fill="#e9eef5" opacity="0.11"></rect><rect x="1084" y="56" width="4" height="4" fill="#e9eef5" opacity="0.21"></rect><rect x="956" y="36" width="6" height="6" fill="#ffd27a" opacity="0.26"></rect><rect x="1320" y="964" width="4" height="4" fill="#ffd27a" opacity="0.25"></rect><rect x="1908" y="1032" width="8" height="8" fill="#e9eef5" opacity="0.15"></rect><rect x="1396" y="952" width="4" height="4" fill="#e9eef5" opacity="0.11"></rect><rect x="1704" y="604" width="4" height="4" fill="#e9eef5" opacity="0.20"></rect><rect x="644" y="784" width="6" height="6" fill="#e9eef5" opacity="0.10"></rect><rect x="1892" y="1072" width="4" height="4" fill="#e9eef5" opacity="0.25"></rect><rect x="384" y="696" width="8" height="8" fill="#ffd27a" opacity="0.17"></rect><rect x="1480" y="1020" width="6" height="6" fill="#e9eef5" opacity="0.10"></rect><rect x="320" y="716" width="4" height="4" fill="#e9eef5" opacity="0.18"></rect><rect x="1452" y="392" width="6" height="6" fill="#e9eef5" opacity="0.07"></rect><rect x="1040" y="220" width="4" height="4" fill="#e9eef5" opacity="0.12"></rect><rect x="1268" y="464" width="4" height="4" fill="#ffd27a" opacity="0.23"></rect><rect x="1756" y="984" width="8" height="8" fill="#e9eef5" opacity="0.27"></rect><rect x="1464" y="648" width="4" height="4" fill="#e9eef5" opacity="0.26"></rect><rect x="260" y="88" width="4" height="4" fill="#ffd27a" opacity="0.08"></rect><rect x="1160" y="1020" width="4" height="4" fill="#ffd27a" opacity="0.09"></rect><rect x="1296" y="264" width="4" height="4" fill="#e9eef5" opacity="0.28"></rect><rect x="1292" y="836" width="4" height="4" fill="#e9eef5" opacity="0.15"></rect><rect x="440" y="872" width="4" height="4" fill="#e9eef5" opacity="0.09"></rect><rect x="976" y="132" width="8" height="8" fill="#ffd27a" opacity="0.19"></rect><rect x="148" y="296" width="4" height="4" fill="#e9eef5" opacity="0.18"></rect><rect x="1908" y="80" width="4" height="4" fill="#e9eef5" opacity="0.13"></rect><rect x="12" y="448" width="4" height="4" fill="#ffd27a" opacity="0.11"></rect><rect x="1492" y="824" width="8" height="8" fill="#e9eef5" opacity="0.25"></rect><rect x="1536" y="716" width="8" height="8" fill="#e9eef5" opacity="0.14"></rect><rect x="956" y="536" width="4" height="4" fill="#e9eef5" opacity="0.22"></rect><rect x="1216" y="788" width="6" height="6" fill="#e9eef5" opacity="0.25"></rect><rect x="840" y="528" width="8" height="8" fill="#e9eef5" opacity="0.27"></rect><rect x="152" y="372" width="4" height="4" fill="#e9eef5" opacity="0.22"></rect><rect x="1832" y="848" width="6" height="6" fill="#ffd27a" opacity="0.11"></rect><rect x="200" y="988" width="8" height="8" fill="#e9eef5" opacity="0.20"></rect><rect x="1028" y="480" width="6" height="6" fill="#e9eef5" opacity="0.18"></rect><rect x="520" y="740" width="8" height="8" fill="#e9eef5" opacity="0.15"></rect><rect x="1132" y="248" width="4" height="4" fill="#e9eef5" opacity="0.24"></rect><rect x="1312" y="948" width="4" height="4" fill="#ffd27a" opacity="0.13"></rect><rect x="4" y="144" width="8" height="8" fill="#e9eef5" opacity="0.06"></rect><rect x="1724" y="188" width="6" height="6" fill="#ffd27a" opacity="0.27"></rect><rect x="336" y="128" width="6" height="6" fill="#e9eef5" opacity="0.06"></rect><rect x="1136" y="812" width="8" height="8" fill="#ffd27a" opacity="0.13"></rect><rect x="1832" y="592" width="6" height="6" fill="#e9eef5" opacity="0.23"></rect><rect x="1408" y="644" width="6" height="6" fill="#ffd27a" opacity="0.07"></rect><rect x="432" y="628" width="6" height="6" fill="#e9eef5" opacity="0.11"></rect><rect x="1208" y="876" width="6" height="6" fill="#ffd27a" opacity="0.26"></rect><rect x="1328" y="440" width="4" height="4" fill="#e9eef5" opacity="0.21"></rect><rect x="200" y="992" width="8" height="8" fill="#e9eef5" opacity="0.24"></rect><rect x="1664" y="852" width="4" height="4" fill="#e9eef5" opacity="0.26"></rect><rect x="364" y="776" width="8" height="8" fill="#ffd27a" opacity="0.09"></rect><rect x="1832" y="60" width="8" height="8" fill="#ffd27a" opacity="0.12"></rect><rect x="1668" y="1032" width="8" height="8" fill="#e9eef5" opacity="0.10"></rect><rect x="904" y="604" width="4" height="4" fill="#ffd27a" opacity="0.13"></rect><rect x="436" y="60" width="4" height="4" fill="#ffd27a" opacity="0.08"></rect><rect x="900" y="872" width="6" height="6" fill="#e9eef5" opacity="0.17"></rect><rect x="744" y="664" width="6" height="6" fill="#e9eef5" opacity="0.23"></rect><rect x="1368" y="652" width="8" height="8" fill="#e9eef5" opacity="0.10"></rect><rect x="1396" y="700" width="4" height="4" fill="#e9eef5" opacity="0.18"></rect><rect x="948" y="132" width="4" height="4" fill="#ffd27a" opacity="0.08"></rect><rect x="660" y="216" width="4" height="4" fill="#e9eef5" opacity="0.09"></rect><rect x="4" y="904" width="4" height="4" fill="#e9eef5" opacity="0.07"></rect><rect x="612" y="436" width="8" height="8" fill="#e9eef5" opacity="0.24"></rect><rect x="1908" y="220" width="4" height="4" fill="#e9eef5" opacity="0.15"></rect><rect x="332" y="816" width="4" height="4" fill="#e9eef5" opacity="0.11"></rect><rect x="1560" y="344" width="8" height="8" fill="#e9eef5" opacity="0.13"></rect><rect x="1692" y="940" width="4" height="4" fill="#e9eef5" opacity="0.17"></rect><rect x="1572" y="880" width="8" height="8" fill="#e9eef5" opacity="0.27"></rect><rect x="548" y="768" width="6" height="6" fill="#e9eef5" opacity="0.25"></rect><rect x="1624" y="712" width="4" height="4" fill="#e9eef5" opacity="0.16"></rect><rect x="1592" y="44" width="8" height="8" fill="#ffd27a" opacity="0.10"></rect><rect x="1108" y="876" width="4" height="4" fill="#e9eef5" opacity="0.25"></rect><rect x="1560" y="224" width="8" height="8" fill="#e9eef5" opacity="0.16"></rect><rect x="1032" y="812" width="4" height="4" fill="#e9eef5" opacity="0.14"></rect><rect x="468" y="760" width="4" height="4" fill="#e9eef5" opacity="0.13"></rect><rect x="1180" y="596" width="4" height="4" fill="#e9eef5" opacity="0.19"></rect><rect x="1152" y="620" width="4" height="4" fill="#e9eef5" opacity="0.19"></rect><rect x="400" y="128" width="4" height="4" fill="#e9eef5" opacity="0.20"></rect><rect x="1236" y="420" width="8" height="8" fill="#e9eef5" opacity="0.15"></rect><rect x="296" y="56" width="4" height="4" fill="#e9eef5" opacity="0.14"></rect><rect x="1216" y="436" width="4" height="4" fill="#e9eef5" opacity="0.08"></rect><rect x="528" y="328" width="8" height="8" fill="#ffd27a" opacity="0.10"></rect><rect x="384" y="656" width="4" height="4" fill="#e9eef5" opacity="0.23"></rect><rect x="944" y="936" width="8" height="8" fill="#e9eef5" opacity="0.09"></rect><rect x="1412" y="964" width="6" height="6" fill="#e9eef5" opacity="0.27"></rect><rect x="1912" y="40" width="4" height="4" fill="#ffd27a" opacity="0.13"></rect><rect x="1724" y="780" width="8" height="8" fill="#e9eef5" opacity="0.11"></rect><rect x="1492" y="200" width="6" height="6" fill="#e9eef5" opacity="0.21"></rect><rect x="1828" y="332" width="6" height="6" fill="#ffd27a" opacity="0.22"></rect><rect x="1180" y="748" width="6" height="6" fill="#e9eef5" opacity="0.07"></rect><rect x="1884" y="912" width="6" height="6" fill="#e9eef5" opacity="0.18"></rect><rect x="1208" y="612" width="4" height="4" fill="#e9eef5" opacity="0.06"></rect><rect x="1252" y="1056" width="8" height="8" fill="#e9eef5" opacity="0.22"></rect><rect x="1096" y="672" width="8" height="8" fill="#ffd27a" opacity="0.11"></rect><rect x="832" y="52" width="4" height="4" fill="#e9eef5" opacity="0.23"></rect><rect x="164" y="332" width="8" height="8" fill="#e9eef5" opacity="0.15"></rect><rect x="556" y="80" width="4" height="4" fill="#e9eef5" opacity="0.16"></rect><rect x="968" y="588" width="6" height="6" fill="#e9eef5" opacity="0.20"></rect><rect x="1816" y="500" width="8" height="8" fill="#e9eef5" opacity="0.28"></rect><rect x="776" y="680" width="6" height="6" fill="#ffd27a" opacity="0.12"></rect><rect x="1616" y="120" width="4" height="4" fill="#ffd27a" opacity="0.21"></rect><rect x="524" y="152" width="4" height="4" fill="#e9eef5" opacity="0.13"></rect><rect x="1452" y="16" width="6" height="6" fill="#e9eef5" opacity="0.26"></rect><rect x="1832" y="80" width="8" height="8" fill="#ffd27a" opacity="0.07"></rect><rect x="916" y="300" width="8" height="8" fill="#e9eef5" opacity="0.24"></rect><rect x="1520" y="12" width="6" height="6" fill="#ffd27a" opacity="0.20"></rect><rect x="168" y="312" width="6" height="6" fill="#e9eef5" opacity="0.23"></rect><rect x="1212" y="168" width="6" height="6" fill="#e9eef5" opacity="0.28"></rect><rect x="1384" y="172" width="6" height="6" fill="#e9eef5" opacity="0.10"></rect><rect x="1340" y="456" width="4" height="4" fill="#e9eef5" opacity="0.28"></rect><rect x="1060" y="712" width="4" height="4" fill="#ffd27a" opacity="0.10"></rect><rect x="1608" y="364" width="4" height="4" fill="#e9eef5" opacity="0.18"></rect><rect x="920" y="548" width="4" height="4" fill="#ffd27a" opacity="0.18"></rect><rect x="836" y="228" width="8" height="8" fill="#ffd27a" opacity="0.20"></rect><rect x="248" y="900" width="4" height="4" fill="#ffd27a" opacity="0.26"></rect><rect x="1708" y="724" width="6" height="6" fill="#e9eef5" opacity="0.25"></rect><rect x="1296" y="504" width="4" height="4" fill="#ffd27a" opacity="0.09"></rect><rect x="112" y="556" width="4" height="4" fill="#ffd27a" opacity="0.11"></rect><rect x="1256" y="264" width="4" height="4" fill="#ffd27a" opacity="0.22"></rect><rect x="1308" y="932" width="8" height="8" fill="#ffd27a" opacity="0.12"></rect><rect x="776" y="640" width="6" height="6" fill="#e9eef5" opacity="0.18"></rect><rect x="1636" y="440" width="8" height="8" fill="#e9eef5" opacity="0.27"></rect><rect x="1800" y="256" width="6" height="6" fill="#e9eef5" opacity="0.26"></rect><rect x="1092" y="700" width="6" height="6" fill="#e9eef5" opacity="0.10"></rect><rect x="848" y="832" width="4" height="4" fill="#e9eef5" opacity="0.21"></rect><rect x="12" y="320" width="6" height="6" fill="#e9eef5" opacity="0.18"></rect></g></svg>